<?xml version="1.0" standalone="no"?>
<!DOCTYPE svg PUBLIC "-//W3C//DTD SVG 20010904//EN"
 "http://www.w3.org/TR/2001/REC-SVG-20010904/DTD/svg10.dtd">
<svg version="1.0" xmlns="http://www.w3.org/2000/svg"
 width="500.000000pt" height="500.000000pt" viewBox="0 0 500.000000 500.000000"
 preserveAspectRatio="xMidYMid meet">

<g transform="translate(0.000000,500.000000) scale(0.100000,-0.100000)"
fill="#000000" stroke="none">
<path d="M2335 3556 c-203 -35 -379 -125 -537 -274 -225 -213 -317 -547 -237
-860 57 -225 182 -380 559 -694 268 -224 353 -288 380 -288 58 0 650 507 776
664 214 268 253 630 100 941 -117 238 -364 426 -650 496 -107 26 -287 33 -391
15z m337 -463 c80 -38 153 -102 168 -149 25 -76 -11 -136 -90 -149 -52 -9 -99
8 -157 56 -63 52 -99 63 -148 47 -48 -16 -62 -38 -49 -75 8 -23 39 -43 173
-113 185 -96 247 -145 287 -226 23 -47 26 -63 22 -118 -13 -155 -137 -267
-327 -297 -181 -28 -364 47 -424 173 -47 99 18 202 116 184 19 -3 60 -26 93
-50 96 -71 177 -83 238 -35 53 42 21 82 -119 147 -120 56 -190 98 -231 138
-140 141 -102 369 77 460 71 35 113 43 214 41 77 -2 100 -7 157 -34z"/>
</g>
</svg>
